<?xml version="1.0" encoding="utf-8"?>
<!-- Generator: Adobe Illustrator 13.0.0, SVG Export Plug-In . SVG Version: 6.00 Build 14948)  -->
<!DOCTYPE svg PUBLIC "-//W3C//DTD SVG 1.1//EN" "http://www.w3.org/Graphics/SVG/1.1/DTD/svg11.dtd">
<svg version="1.1" id="Group_1_copy_1_" xmlns="http://www.w3.org/2000/svg" xmlns:xlink="http://www.w3.org/1999/xlink" x="0px"
	 y="0px" width="16px" height="16px" viewBox="0 0 16 16" enable-background="new 0 0 16 16" xml:space="preserve">
<g id="Shape_3_copy">
	<g>
		<path fill-rule="evenodd" clip-rule="evenodd" fill="#24333D" d="M13.996,0H2.004C0.897,0,0,0.896,0,2v11.969
			c0,1.104,0.897,2,2.004,2h11.992c1.107,0,2.004-0.896,2.004-2V2C16,0.896,15.104,0,13.996,0z"/>
	</g>
</g>
<g id="Shape_1_copy_3">
	<g>
		<path fill-rule="evenodd" clip-rule="evenodd" fill="#1FBCDE" d="M14.08,7.786l-0.006,0.008c0.001-0.023,0.004-0.045,0.004-0.068
			c0-3.359-2.725-6.082-6.086-6.082S1.906,4.366,1.906,7.726c0,3.358,2.725,6.081,6.086,6.081c1.479,0,2.834-0.528,3.889-1.404
			l2.129,2.314L14.08,7.786z M8.004,10.21c-1.226,0-2.219-0.993-2.219-2.218s0.994-2.217,2.219-2.217s2.219,0.992,2.219,2.217
			S9.229,10.21,8.004,10.21z"/>
	</g>
</g>
</svg>
